<?xml version="1.0" encoding="UTF-8"?>
<svg version="1.1" xmlns="http://www.w3.org/2000/svg" width="512" height="512">
<path d="M0 0 C1.23045073 1.01544566 2.43957676 2.05733403 3.625 3.125 C4.54732422 3.94484375 4.54732422 3.94484375 5.48828125 4.78125 C12.24739325 11.14957823 16.24531944 18.16904006 18.625 27.125 C18.83898437 27.84429687 19.05296875 28.56359375 19.2734375 29.3046875 C19.60686686 31.97953189 19.44273034 33.85546222 19.0546875 36.49609375 C17.80487498 45.79833022 17.80487498 45.79833022 21.17919922 54.19873047 C25.6145949 58.31430225 30.76825073 61.37832559 35.94384766 64.47167969 C40.19960733 67.0959744 44.13920139 70.11302578 48.125 73.125 C49.70677586 74.29377743 51.29011503 75.46044207 52.875 76.625 C75.04166667 92.95833333 97.20833333 109.29166667 119.375 125.625 C120.1589917 126.20266113 120.9429834 126.78032227 121.75073242 127.37548828 C123.33168983 128.54043849 124.91258192 129.70547734 126.4934082 130.87060547 C130.48755828 133.8142698 134.4828843 136.75631346 138.48046875 139.6953125 C139.27952637 140.28489746 140.07858398 140.87448242 140.90185547 141.48193359 C142.49921586 142.65350377 144.10368191 143.81545149 145.71533203 144.96728516 C149.60288928 147.76725676 153.20858022 150.6008642 156.63671875 153.953125 C161.98230286 159.09347884 161.98230286 159.09347884 168.625 162.125 C175.31935244 161.51548135 181.29831647 158.21278505 187.22363281 155.24560547 C193.27281286 152.42273678 199.97684726 151.125 206.625 151.125 C206.625 132.975 206.625 114.825 206.625 96.125 C204.645 95.465 202.665 94.805 200.625 94.125 C191.04162331 87.34651405 184.78020575 78.45607057 182.09765625 67.03515625 C180.1562153 55.08165619 181.90685861 43.57996896 188.4375 33.25 C195.42149618 23.74690072 204.38203157 16.43161555 216.3203125 14.37109375 C230.36541474 12.87136249 241.6256159 16.13091344 252.78125 24.80078125 C260.89688817 32.0892486 266.13888939 42.84927883 266.86328125 53.69140625 C267.09315658 66.06837792 265.43065863 76.7556237 256.625 86.125 C251.70046372 91.09374217 248.40787418 93.86404194 241.625 96.125 C241.625 114.275 241.625 132.425 241.625 151.125 C246.575 152.115 251.525 153.105 256.625 154.125 C285.79106329 162.82860516 310.88290265 182.32386994 325.8125 208.9375 C341.39199223 238.00420478 345.20312295 271.30637688 335.72607422 302.99291992 C330.765616 318.4130397 322.96705344 331.73878859 312.625 344.125 C311.73361328 345.24455078 311.73361328 345.24455078 310.82421875 346.38671875 C306.109904 352.1136548 300.48803758 356.61748364 294.625 361.125 C293.84382813 361.7334375 293.06265625 362.341875 292.2578125 362.96875 C277.25103601 374.08488073 258.18296915 381.89572757 239.625 384.125 C238.72652344 384.23457031 237.82804687 384.34414063 236.90234375 384.45703125 C209.13080603 387.38651835 182.32267456 380.89913455 158.76953125 366.078125 C156.40790984 364.6112794 154.11481924 363.33704684 151.625 362.125 C145.95670978 367.44424912 140.33071914 372.80447777 134.75367641 378.21914101 C132.16190748 380.73292968 129.55826014 383.23102293 126.92114258 385.69726562 C124.37173198 388.08250288 121.86186687 390.5036405 119.37394905 392.9528923 C117.96357027 394.32245352 116.51586241 395.65323609 115.06773376 396.9828186 C110.04342592 401.99733052 110.04342592 401.99733052 108.31643677 408.68817139 C108.55663643 412.3638762 108.55663643 412.3638762 109.18885803 415.81869507 C110.20832128 423.54704181 107.30880971 431.13913147 102.9453125 437.44921875 C101.01256707 439.90231872 98.94552806 442.03652475 96.625 444.125 C95.903125 444.805625 95.18125 445.48625 94.4375 446.1875 C84.96617981 452.71218724 74.83337358 453.54268013 63.625 452.125 C54.04681453 449.7410023 46.41972824 444.48723258 40.8125 436.375 C35.05005118 426.29071457 34.21000396 415.61260385 37.1875 404.5625 C40.66886629 394.23970309 47.05359395 387.28852169 56.625 382.125 C64.49096631 378.96737638 72.96631563 377.70196849 81.16333008 380.20581055 C84.22068754 380.57625102 85.35646655 380.3022818 87.96037292 378.58322144 C90.62694515 376.16716869 93.11572121 373.64437631 95.59375 371.03515625 C96.51466431 370.10150742 97.43557861 369.16785858 98.38439941 368.20591736 C100.82472961 365.73133103 103.23682413 363.2309282 105.6439209 360.72406006 C108.10802877 358.16764715 110.59802722 355.63673128 113.0859375 353.10351562 C117.95786316 348.1352589 122.8004188 343.139233 127.625 338.125 C126.0666633 334.94809056 124.33893026 331.90318266 122.5534668 328.84790039 C105.83058577 299.96481377 101.48000756 268.39895065 109.25 235.875 C115.05931918 215.28608937 125.74768076 198.31344189 140.625 183.125 C136.50733645 178.65321738 131.9211989 175.4227299 126.875 172.0625 C125.15943989 170.90470658 123.44460996 169.74583059 121.73046875 168.5859375 C120.87114746 168.00553711 120.01182617 167.42513672 119.12646484 166.82714844 C115.44872116 164.32458851 111.81508835 161.76201519 108.1875 159.1875 C102.01469685 154.81207188 95.82648188 150.45970021 89.625 146.125 C82.75672216 141.3226456 75.90174768 136.50213352 69.05859375 131.6640625 C63.59193091 127.8016353 58.11047834 123.96064745 52.625 120.125 C46.44816622 115.8059315 40.27944774 111.47590925 34.125 107.125 C27.79961271 102.65532095 21.46638336 98.19695972 15.125 93.75 C14.31224609 93.17894531 13.49949219 92.60789062 12.66210938 92.01953125 C10.32186881 90.38001899 7.97370662 88.75235153 5.625 87.125 C4.80314209 86.54339111 3.98128418 85.96178223 3.13452148 85.36254883 C2.33602783 84.80849365 1.53753418 84.25443848 0.71484375 83.68359375 C-0.0006665 83.18142334 -0.71617676 82.67925293 -1.45336914 82.16186523 C-3.45066641 80.83634275 -3.45066641 80.83634275 -6.3125 81.5625 C-7.323125 82.078125 -8.33375 82.59375 -9.375 83.125 C-20.81744394 87.94407319 -35.18403925 88.00292171 -46.70703125 83.44140625 C-59.34519626 77.2055913 -68.68807126 67.47683901 -73.375 54.125 C-77.60104255 41.17996441 -75.79092611 27.48579152 -69.75 15.4375 C-63.36233174 4.5186779 -52.88976212 -4.15647628 -40.52734375 -7.3984375 C-25.91104111 -9.6080892 -12.36091491 -8.74193982 0 0 Z M175.5 227.6875 C164.41241216 242.31603405 159.59902821 259.12185752 162.05859375 277.3359375 C165.34746675 294.20928592 174.67530454 308.74465379 188.8671875 318.41015625 C204.30316539 328.00844845 220.81390451 331.39664335 238.6953125 327.265625 C254.76238025 322.96520489 268.58969309 312.12300962 276.87866211 297.80297852 C284.90798377 283.18283714 286.92578206 267.49197835 283 251.3125 C277.85719831 234.23553133 267.37121774 221.64703605 252.08984375 212.62890625 C249.64083139 211.32095511 247.18936695 210.18778316 244.625 209.125 C243.85542969 208.8053125 243.08585937 208.485625 242.29296875 208.15625 C218.70091132 200.13123519 191.38174462 209.06226783 175.5 227.6875 Z " fill="#FF7958" transform="translate(123.375,33.875)"/>
</svg>
